<svg xmlns="http://www.w3.org/2000/svg" xmlns:xlink="http://www.w3.org/1999/xlink" fill="none" version="1.1" width="54" height="54" viewBox="0 0 54 54"><defs><clipPath id="master_svg0_9_2807"><rect x="0" y="0" width="54" height="54" rx="0"/></clipPath></defs><g clip-path="url(#master_svg0_9_2807)"><g><ellipse cx="27" cy="23" rx="20" ry="20" fill="#536D64" fill-opacity="1"/></g><g transform="matrix(-1,-5.2146120310681e-8,5.2146120310681e-8,-1,65.99999734054786,102.00000172082197)"><path d="M39,51L44.1962,62.25L33.803848,62.25L39,51Z" fill="#536D64" fill-opacity="1"/></g><g><g><path d="M20.2293317254303,20.181250349731446Q19.687422925430297,15.012832349731445,26.257811925430296,14.824851969731446C32.8282419254303,14.636872349731446,33.2903419254303,19.726790349731445,33.3087419254303,21.416550349731445C33.3680419254303,26.909280349731446,30.464241925430297,27.190180349731445,30.1554619254303,30.904380349731444C29.903941925430296,33.93888034973145,31.840541925430298,33.11058034973145,31.715741925430297,35.84558034973145C31.591041925430297,38.58058034973145,30.026631925430298,38.94208034973144,27.337541925430298,38.99368034973145C24.648441925430298,39.045380349731445,19.458389925430296,38.99368034973145,23.3519519254303,29.782680349731443C25.039031925430297,25.791780349731447,28.7894519254303,24.153620349731447,26.856981925430297,23.872690349731446C24.664801925430297,23.554570349731446,20.296813925430296,25.671880349731445,20.227287125430298,20.179190349731446L20.2293317254303,20.181250349731446Z" fill="#F0F0EE" fill-opacity="1"/></g><g><path d="M22.64812,10.42722C21.9283,8.0702343,19.69932,7.799626,18.61959,8.0991543C16.9304721,8.568072,16.705529,9.9583,17.294471,12.86269C17.883414,15.76709,20.114440000000002,15.513010000000001,21.687,14.93461C23.25956,14.35621,23.36794,12.7842,22.64812,10.42515L22.64812,10.42722ZM20.45595,12.484670000000001C20.05718,12.63133,19.49074,12.69537,19.34146,11.95998C19.19217,11.22252,19.24943,10.87134,19.67683,10.751529999999999C19.95085,10.6751,20.51525,10.743269999999999,20.6993,11.34233C20.88129,11.93932,20.85471,12.34007,20.45595,12.484670000000001Z" fill="#F0F0EE" fill-opacity="1"/></g><g><path d="M27.993024816589354,8.0822583C26.678134816589356,7.780664,26.203704816589354,8.24545,25.696559816589357,10.53426C25.324380816589354,12.21575,25.385728816589356,12.97387,26.766064816589356,13.32091C27.988934816589357,13.6287,28.870304816589357,12.30458,29.132054816589356,11.27999C29.391764816589355,10.25539,29.307924816589356,8.383852,27.993024816589354,8.0822583ZM27.796714816589354,10.82553C27.735364816589357,11.06928,27.524734816589355,11.38534,27.232304816589355,11.31304C26.903074816589356,11.23041,26.888754816589355,11.04863,26.976694816589355,10.64788C27.097344816589356,10.10046,27.211854816589355,9.99098,27.524734816589355,10.061209999999999C27.839654816589356,10.13351,27.858064816589355,10.57971,27.796714816589354,10.82553Z" fill="#F0F0EE" fill-opacity="1"/></g><g><path d="M32.39766356964111,9.67072433190918C31.481533569641112,9.19974133190918,30.968253569641114,9.26584433190918,29.669714569641112,11.49475333190918C28.798571569641112,12.98826333190918,28.77812156964111,13.924033331909179,29.980545569641112,14.426003331909179C31.182973569641113,14.927973331909179,32.156363569641115,14.23389333190918,32.90480356964111,13.01305333190918C33.739143569641115,11.65381333190918,33.31379356964111,10.141708331909179,32.39766356964111,9.67072433190918ZM31.657393569641112,12.28179333190918C31.454943569641113,12.61023333190918,31.193193569641114,12.79821333190918,30.870093569641114,12.66188333190918C30.546993569641113,12.52761333190918,30.553133569641112,12.27352333190918,30.78625356964111,11.87277333190918C31.135933569641114,11.27165333190918,31.27499356964111,11.25513333190918,31.520383569641112,11.38113333190918C31.767823569641113,11.50714333190918,31.882333569641112,11.916153331909179,31.657393569641112,12.28179333190918Z" fill="#F0F0EE" fill-opacity="1"/></g><g><path d="M35.29401327636719,12.871935828704833C35.83796327636719,13.293341828704834,34.257223276367185,14.739345828704835,34.279723276367186,15.092575828704835C34.285853276367185,15.185535828704834,34.572143276367186,15.390045828704833,34.739833276367186,15.321875828704833C35.31241327636719,15.090515828704834,35.95861327636719,13.545358828704835,36.77250327636719,14.220845828704833C37.338953276367185,14.691835828704834,36.78477327636719,15.666845828704833,35.803203276367185,16.513795828704833C34.82163327636719,17.360735828704833,34.11408327636719,17.525995828704833,33.23271227636719,16.823645828704834C32.35338727636719,16.121305828704834,32.35543327636719,15.224785828704833,33.33291327636719,13.999815828704834C34.310393276367186,12.774846828704835,34.66008327636719,12.380295828704835,35.291963276367184,12.871935828704833L35.29401327636719,12.871935828704833Z" fill="#F0F0EE" fill-opacity="1"/></g><g><path d="M23.401312150860594,10.768850164886475C23.272480850860596,10.213173164886475,23.644659850860595,10.116084164886475,24.344028850860596,9.928104164886475C25.043403850860596,9.740124164886474,25.391033850860595,9.711204064886475,25.505553850860597,10.103690164886475C25.622113850860597,10.496176164886474,25.640523850860596,10.731667164886474,24.613963850860596,10.965089164886475C23.587401850860594,11.200589164886475,23.452435550860596,11.000209164886474,23.399267150860595,10.768850164886475L23.401312150860594,10.768850164886475Z" fill="#F0F0EE" fill-opacity="1"/></g></g></g></svg>